<svg width="396" height="102" viewBox="0 0 396 102" fill="none" xmlns="http://www.w3.org/2000/svg">
<path d="M133.754 68.7562C133.754 70.9838 133.366 73.0422 132.591 74.9313C131.829 76.8064 130.751 78.4348 129.355 79.8164C127.959 81.184 126.274 82.2555 124.301 83.0309C122.341 83.7922 120.163 84.1729 117.766 84.1729H105.797V53.3608H117.766C120.163 53.3608 122.341 53.7485 124.301 54.5239C126.274 55.2993 127.959 56.3708 129.355 57.7383C130.751 59.1059 131.829 60.7342 132.591 62.6234C133.366 64.4985 133.754 66.5428 133.754 68.7562ZM126.437 68.7562C126.437 67.2336 126.239 65.859 125.844 64.6325C125.45 63.4059 124.879 62.3697 124.131 61.5237C123.398 60.6637 122.496 60.0082 121.425 59.557C120.353 59.0918 119.134 58.8592 117.766 58.8592H112.987V78.6745H117.766C119.134 78.6745 120.353 78.4489 121.425 77.9977C122.496 77.5325 123.398 76.8769 124.131 76.031C124.879 75.171 125.45 74.1277 125.844 72.9012C126.239 71.6746 126.437 70.293 126.437 68.7562ZM154.909 53.3608V58.8592H142.263V66.0493H151.949V71.3362H142.263V78.6745H154.909V84.1729H135.073V53.3608H154.909ZM154.335 53.3608H160.087C160.708 53.3608 161.215 53.5018 161.61 53.7837C162.005 54.0657 162.287 54.4393 162.456 54.9045L168.42 71.3997C168.687 72.1187 168.955 72.9012 169.223 73.7471C169.505 74.593 169.766 75.4812 170.006 76.4117C170.203 75.4812 170.429 74.593 170.682 73.7471C170.95 72.9012 171.211 72.1187 171.465 71.3997L177.386 54.9045C177.527 54.5098 177.802 54.1573 178.211 53.8472C178.62 53.5229 179.12 53.3608 179.712 53.3608H185.507L173.157 84.1729H166.685L154.335 53.3608ZM205.779 53.3608V58.8592H193.133V66.0493H202.818V71.3362H193.133V78.6745H205.779V84.1729H185.943V53.3608H205.779ZM214.891 78.463H226.311V84.1729H207.743V53.3608H214.891V78.463ZM256.277 68.7562C256.277 70.9838 255.89 73.0563 255.114 74.9736C254.353 76.891 253.274 78.5617 251.879 79.9856C250.483 81.3955 248.798 82.5022 246.824 83.3058C244.865 84.1094 242.686 84.5112 240.29 84.5112C237.893 84.5112 235.708 84.1094 233.734 83.3058C231.76 82.5022 230.068 81.3955 228.659 79.9856C227.263 78.5617 226.177 76.891 225.402 74.9736C224.641 73.0563 224.26 70.9838 224.26 68.7562C224.26 66.5287 224.641 64.4562 225.402 62.5388C226.177 60.6215 227.263 58.9578 228.659 57.548C230.068 56.1382 231.76 55.0314 233.734 54.2278C235.708 53.4242 237.893 53.0224 240.29 53.0224C242.686 53.0224 244.865 53.4313 246.824 54.249C248.798 55.0526 250.483 56.1593 251.879 57.5691C253.274 58.979 254.353 60.6426 255.114 62.56C255.89 64.4774 256.277 66.5428 256.277 68.7562ZM248.96 68.7562C248.96 67.2336 248.763 65.8661 248.368 64.6536C247.973 63.427 247.402 62.3908 246.655 61.5449C245.922 60.699 245.02 60.0505 243.948 59.5993C242.877 59.1482 241.657 58.9226 240.29 58.9226C238.908 58.9226 237.674 59.1482 236.589 59.5993C235.517 60.0505 234.608 60.699 233.861 61.5449C233.128 62.3908 232.564 63.427 232.169 64.6536C231.774 65.8661 231.577 67.2336 231.577 68.7562C231.577 70.293 231.774 71.6746 232.169 72.9012C232.564 74.1136 233.128 75.1428 233.861 75.9887C234.608 76.8346 235.517 77.4832 236.589 77.9343C237.674 78.3714 238.908 78.5899 240.29 78.5899C241.657 78.5899 242.877 78.3714 243.948 77.9343C245.02 77.4832 245.922 76.8346 246.655 75.9887C247.402 75.1428 247.973 74.1136 248.368 72.9012C248.763 71.6746 248.96 70.293 248.96 68.7562ZM264.728 73.874V84.1729H257.58V53.3608H268.45C270.621 53.3608 272.482 53.6216 274.033 54.1432C275.598 54.6508 276.881 55.3557 277.882 56.258C278.897 57.1603 279.644 58.2247 280.124 59.4513C280.603 60.6778 280.843 62.0031 280.843 63.427C280.843 64.9638 280.596 66.3736 280.102 67.6566C279.609 68.9395 278.855 70.0392 277.84 70.9556C276.825 71.872 275.535 72.591 273.97 73.1126C272.419 73.6202 270.579 73.874 268.45 73.874H264.728ZM264.728 68.4813H268.45C270.311 68.4813 271.65 68.0372 272.468 67.149C273.286 66.2608 273.695 65.0202 273.695 63.427C273.695 62.7221 273.589 62.0806 273.378 61.5026C273.166 60.9246 272.842 60.4311 272.405 60.0223C271.982 59.5993 271.439 59.2751 270.776 59.0495C270.128 58.8239 269.352 58.7111 268.45 58.7111H264.728V68.4813ZM298.192 70.0885C298.474 70.6243 298.742 71.1812 298.996 71.7592C299.263 72.3372 299.517 72.9294 299.757 73.5356C299.997 72.9153 300.25 72.3161 300.518 71.7381C300.786 71.1459 301.061 70.5749 301.343 70.0251L309.252 54.4604C309.393 54.1926 309.534 53.9881 309.675 53.8472C309.83 53.6921 309.999 53.5793 310.183 53.5088C310.366 53.4383 310.57 53.396 310.796 53.3819C311.036 53.3678 311.31 53.3608 311.621 53.3608H317.077V84.1729H310.775V66.4511C310.775 65.5911 310.817 64.6606 310.902 63.6597L302.739 79.4992C302.485 79.9927 302.139 80.3663 301.702 80.6201C301.279 80.8738 300.793 81.0007 300.243 81.0007H299.27C298.721 81.0007 298.227 80.8738 297.79 80.6201C297.367 80.3663 297.029 79.9927 296.775 79.4992L288.57 63.6385C288.626 64.132 288.668 64.6254 288.697 65.1188C288.725 65.5982 288.739 66.0423 288.739 66.4511V84.1729H282.437V53.3608H287.893C288.203 53.3608 288.471 53.3678 288.697 53.3819C288.936 53.396 289.148 53.4383 289.331 53.5088C289.514 53.5793 289.676 53.6921 289.817 53.8472C289.973 53.9881 290.121 54.1926 290.262 54.4604L298.192 70.0885ZM339.893 53.3608V58.8592H327.247V66.0493H336.932V71.3362H327.247V78.6745H339.893V84.1729H320.057V53.3608H339.893ZM345.621 53.3608C345.931 53.3608 346.192 53.3749 346.404 53.4031C346.615 53.4313 346.805 53.4877 346.975 53.5722C347.144 53.6427 347.306 53.7485 347.461 53.8895C347.616 54.0304 347.792 54.2208 347.99 54.4604L362.624 72.9646C362.567 72.3725 362.525 71.8015 362.497 71.2517C362.469 70.6877 362.455 70.159 362.455 69.6656V53.3608H368.757V84.1729H365.035C364.485 84.1729 364.02 84.0883 363.639 83.9191C363.258 83.7499 362.892 83.4397 362.539 82.9886L348.011 64.6325C348.053 65.1682 348.088 65.6969 348.117 66.2185C348.145 66.7261 348.159 67.2054 348.159 67.6566V84.1729H341.857V53.3608H345.621ZM394.085 53.3608V59.0283H385.415V84.1729H378.267V59.0283H369.597V53.3608H394.085Z" fill="white"/>
<path d="M110.344 37.4855V45.991H105.849V21.8281H113.719C115.335 21.8281 116.733 22.0175 117.914 22.3963C119.094 22.775 120.069 23.3042 120.838 23.9837C121.607 24.6633 122.175 25.4765 122.542 26.4234C122.91 27.3703 123.094 28.4063 123.094 29.5315C123.094 30.7012 122.899 31.7762 122.509 32.7565C122.119 33.7257 121.534 34.5612 120.754 35.2631C119.974 35.9649 119 36.5108 117.83 36.9007C116.66 37.2906 115.29 37.4855 113.719 37.4855H110.344ZM110.344 33.9764H113.719C114.544 33.9764 115.262 33.8761 115.875 33.6756C116.488 33.4639 116.995 33.1687 117.396 32.79C117.797 32.4001 118.097 31.9322 118.298 31.3863C118.498 30.8293 118.599 30.211 118.599 29.5315C118.599 28.8854 118.498 28.3005 118.298 27.7769C118.097 27.2533 117.797 26.8077 117.396 26.4401C116.995 26.0725 116.488 25.794 115.875 25.6046C115.262 25.4041 114.544 25.3038 113.719 25.3038H110.344V33.9764ZM129.41 42.2813H139.085V45.991H124.915V21.8281H129.41V42.2813ZM161.748 45.991H158.272C157.882 45.991 157.559 45.8963 157.303 45.7069C157.058 45.5064 156.879 45.2613 156.768 44.9716L154.963 40.0422H144.954L143.149 44.9716C143.06 45.2279 142.882 45.4618 142.615 45.6735C142.358 45.8851 142.041 45.991 141.662 45.991H138.17L147.661 21.8281H152.256L161.748 45.991ZM146.107 36.8672H153.81L150.869 28.8297C150.736 28.4732 150.585 28.0554 150.418 27.5764C150.262 27.0862 150.106 26.5571 149.95 25.9889C149.794 26.5571 149.638 27.0862 149.482 27.5764C149.338 28.0666 149.193 28.4955 149.048 28.8631L146.107 36.8672ZM164.921 21.8281C165.122 21.8281 165.289 21.8393 165.423 21.8615C165.556 21.8727 165.673 21.9061 165.773 21.9618C165.885 22.0064 165.991 22.0788 166.091 22.179C166.191 22.2681 166.303 22.3907 166.425 22.5466L179.108 38.7053C179.064 38.3154 179.03 37.9367 179.008 37.5691C178.997 37.1903 178.991 36.8394 178.991 36.5163V21.8281H182.951V45.991H180.629C180.272 45.991 179.977 45.9353 179.743 45.8239C179.509 45.7125 179.281 45.5119 179.058 45.2223L166.425 29.1304C166.459 29.4869 166.481 29.8434 166.492 30.1999C166.514 30.5452 166.525 30.8627 166.525 31.1524V45.991H162.565V21.8281H164.921ZM188.511 21.8281C188.712 21.8281 188.879 21.8393 189.013 21.8615C189.146 21.8727 189.263 21.9061 189.363 21.9618C189.475 22.0064 189.581 22.0788 189.681 22.179C189.781 22.2681 189.893 22.3907 190.015 22.5466L202.698 38.7053C202.654 38.3154 202.62 37.9367 202.598 37.5691C202.587 37.1903 202.581 36.8394 202.581 36.5163V21.8281H206.542V45.991H204.219C203.862 45.991 203.567 45.9353 203.333 45.8239C203.099 45.7125 202.871 45.5119 202.648 45.2223L190.015 29.1304C190.049 29.4869 190.071 29.8434 190.082 30.1999C190.104 30.5452 190.115 30.8627 190.115 31.1524V45.991H186.155V21.8281H188.511ZM214.808 45.991H210.297V21.8281H214.808V45.991ZM220.939 21.8281C221.14 21.8281 221.307 21.8393 221.441 21.8615C221.574 21.8727 221.691 21.9061 221.792 21.9618C221.903 22.0064 222.009 22.0788 222.109 22.179C222.209 22.2681 222.321 22.3907 222.443 22.5466L235.126 38.7053C235.082 38.3154 235.048 37.9367 235.026 37.5691C235.015 37.1903 235.009 36.8394 235.009 36.5163V21.8281H238.97V45.991H236.647C236.29 45.991 235.995 45.9353 235.761 45.8239C235.527 45.7125 235.299 45.5119 235.076 45.2223L222.443 29.1304C222.477 29.4869 222.499 29.8434 222.51 30.1999C222.532 30.5452 222.544 30.8627 222.544 31.1524V45.991H218.583V21.8281H220.939ZM253.269 42.6824C254.283 42.6824 255.163 42.5932 255.909 42.415C256.667 42.2256 257.385 41.9694 258.065 41.6463V37.2516H255.04C254.75 37.2516 254.522 37.1736 254.355 37.0176C254.188 36.8505 254.104 36.65 254.104 36.4161V33.8761H262.142V43.6515C261.529 44.0972 260.889 44.4871 260.22 44.8213C259.563 45.1443 258.856 45.4117 258.098 45.6233C257.352 45.835 256.55 45.991 255.692 46.0912C254.834 46.2026 253.909 46.2583 252.918 46.2583C251.158 46.2583 249.537 45.952 248.055 45.3393C246.574 44.7266 245.292 43.8743 244.212 42.7826C243.131 41.6909 242.285 40.3875 241.672 38.8724C241.07 37.3574 240.77 35.7031 240.77 33.9095C240.77 32.0937 241.065 30.4283 241.655 28.9132C242.246 27.3982 243.081 26.0948 244.162 25.003C245.253 23.9113 246.574 23.0647 248.122 22.4631C249.671 21.8615 251.408 21.5608 253.336 21.5608C255.307 21.5608 257.012 21.856 258.449 22.4464C259.897 23.0257 261.123 23.7832 262.125 24.719L260.822 26.7576C260.566 27.1698 260.226 27.3759 259.802 27.3759C259.535 27.3759 259.262 27.2868 258.984 27.1085C258.627 26.8969 258.26 26.6852 257.881 26.4735C257.513 26.2619 257.101 26.0781 256.644 25.9221C256.199 25.7661 255.692 25.638 255.124 25.5378C254.567 25.4375 253.92 25.3874 253.185 25.3874C251.993 25.3874 250.913 25.5879 249.943 25.9889C248.985 26.39 248.167 26.9637 247.487 27.7101C246.808 28.4565 246.284 29.3532 245.916 30.4004C245.549 31.4476 245.365 32.6173 245.365 33.9095C245.365 35.3021 245.56 36.5442 245.95 37.6359C246.34 38.7165 246.886 39.63 247.587 40.3764C248.289 41.1227 249.125 41.6965 250.094 42.0975C251.063 42.4874 252.121 42.6824 253.269 42.6824Z" fill="white"/>
<rect x="0.378418" y="0.261475" width="95" height="100.938" rx="12" fill="#14192B"/>
<mask id="mask0" mask-type="alpha" maskUnits="userSpaceOnUse" x="0" y="0" width="96" height="102">
<rect x="0.378418" y="0.261475" width="95" height="100.938" rx="12" fill="white"/>
</mask>
<g mask="url(#mask0)">
<path d="M28.6067 92.7528C28.4969 87.7678 28.4374 78.1818 28.4214 74.0118C28.4711 73.1756 29.0555 71.0128 30.9949 69.0508C32.1658 68.1928 34.9035 65.2432 36.4864 60.3086C38.465 54.1403 44.4591 50.1542 49.6639 49.5567C54.8686 48.9591 60.4819 50.1832 63.0215 44.9203C65.8312 39.3238 58.9258 37.5472 56.0911 37.8747C53.2563 38.2022 42.7217 41.9807 38.3954 41.6883C31.3788 41.0539 25.771 35.2228 23.9218 28.6844C22.0726 22.1459 23.2525 13.7742 27.3753 6.89032C33.7156 -3.57472 45.6185 -3.03154 52.2029 -1.3742C58.7874 0.283136 68.2034 7.66048 74.2142 11.1428C80.225 14.6252 87.1587 15.6233 90.5119 7.8618C93.8651 0.100291 85.2379 -2.40826 78.1052 -2.13884C70.9725 -1.86943 65.8099 1.18276 57.4678 -3.88895C47.0723 -10.3152 49.3545 -20.2498 53.2706 -28.2624C57.1866 -36.275 67.2996 -37.5145 74.9813 -32.4909C77.8209 -30.5374 81.9226 -25.6306 86.9278 -26.869C92.4997 -28.2478 96.6928 -31.5252 94.6095 -39.3998C92.8979 -45.8872 87.9005 -47.7438 79.1893 -44.8001C76.7749 -43.9658 71.149 -43.185 67.9605 -46.7365C64.772 -50.288 66.2122 -54.2018 67.3308 -55.7148C66.1108 -44.0049 75.0036 -47.9989 81.2069 -50.2307C84.5197 -51.564 96.2567 -51.5726 99.5155 -43.7574C101.699 -38.5207 101.927 -33.5997 99.138 -27.8553L99.0966 -27.7699C97.3584 -24.1891 96.5841 -22.5942 92.5288 -20.3174C88.4414 -18.0227 81.9173 -19.0001 69.3952 -23.9154C64.829 -25.8091 61.5835 -24.5165 60.3201 -20.9753C59.0566 -17.4342 62.1243 -12.3497 73.4605 -13.7922C73.9834 -13.7952 88.3907 -19.2907 98.4777 -10.3491C105.736 -3.90488 105.8 2.29749 103.39 11.3972C100.911 20.7568 95.4976 26.1763 87.3892 29.187C78.979 32.3097 71.3805 28.0389 66.0028 24.3972C63.1672 22.6205 58.5543 18.6056 50.9701 13.8812C47.2939 11.7922 39.2701 9.33712 36.5844 16.2289C33.2273 24.8437 39.8292 27.2966 43.9107 27.8266C47.9923 28.3566 57.1465 25.7091 65.5832 28.0546C70.0561 29.4972 78.5742 34.8535 76.8638 44.7375C75.8166 49.1479 71.551 58.0827 62.8668 58.5381C60.5766 58.4762 55.0788 58.6033 51.4086 59.6066C48.2918 60.5525 45.051 66.1861 46.2341 69.3213C47.2884 71.7731 48.7689 77.4689 46.2559 80.6378C43.35 84.6207 37.109 93.1239 35.3921 95.2737C33.2458 97.9609 28.8962 96.6079 28.6067 92.7528Z" fill="#005377"/>
<path d="M25.7146 92.4622C25.6048 87.4773 25.5453 77.8912 25.5293 73.7213C25.579 72.8851 26.1634 70.7222 28.1028 68.7603C29.2738 67.9023 32.0114 64.9527 33.5943 60.0181C35.5729 53.8498 41.567 49.8637 46.7718 49.2661C51.9766 48.6686 57.5898 49.8927 60.1294 44.6298C62.9391 39.0332 56.0338 37.2567 53.199 37.5841C50.3642 37.9116 39.8296 41.6902 35.5033 41.3978C28.4867 40.7633 22.8789 34.9323 21.0297 28.3938C19.1806 21.8554 20.3604 13.4836 24.4832 6.59979C30.8235 -3.86525 42.7264 -3.32207 49.3109 -1.66473C55.8953 -0.00739091 65.3113 7.36995 71.3221 10.8523C77.3329 14.3346 84.2666 15.3328 87.6198 7.57127C90.973 -0.190236 82.3458 -2.69878 75.2131 -2.42937C68.0804 -2.15996 62.9178 0.892228 54.5757 -4.17948C44.1803 -10.6058 46.4624 -20.5403 50.3785 -28.5529C54.2945 -36.5655 64.4075 -37.805 72.0892 -32.7815C74.9288 -30.8279 79.0305 -25.9211 84.0358 -27.1596C89.6076 -28.5383 93.8007 -31.8158 91.7174 -39.6904C90.0058 -46.1777 85.0085 -48.0344 76.2972 -45.0907C73.8828 -44.2563 68.2569 -43.4756 65.0684 -47.027C61.8799 -50.5785 63.3201 -54.4923 64.4387 -56.0053C63.2187 -44.2954 72.1115 -48.2894 78.3148 -50.5212C81.6276 -51.8545 93.3646 -51.8632 96.6234 -44.0479C98.8069 -38.8113 99.0347 -33.8903 96.2459 -28.1458L96.2045 -28.0605C94.4663 -24.4796 93.6921 -22.8847 89.6367 -20.608C85.5493 -18.3132 79.0252 -19.2906 66.5031 -24.2059C61.937 -26.0996 58.6914 -24.807 57.428 -21.2659C56.1645 -17.7247 59.2322 -12.6402 70.5684 -14.0827C71.0913 -14.0857 85.4986 -19.5812 95.5857 -10.6396C102.844 -4.19541 102.908 2.00696 100.498 11.1067C98.0194 20.4663 92.6055 25.8857 84.4971 28.8964C76.0869 32.0192 68.4884 27.7483 63.1107 24.1067C60.2751 22.33 55.6622 18.3151 48.078 13.5907C44.4018 11.5017 36.378 9.04659 33.6923 15.9384C30.3352 24.5531 36.9371 27.0061 41.0186 27.5361C45.1002 28.0661 54.2544 25.4186 62.6911 27.7641C67.164 29.2067 75.6821 34.563 73.9718 44.447C72.9245 48.8574 68.6589 57.7922 59.9747 58.2475C57.6845 58.1857 52.1867 58.3128 48.5165 59.3161C45.3998 60.262 42.1589 65.8956 43.342 69.0307C44.3963 71.4825 45.8768 77.1784 43.3638 80.3473C40.4579 84.3302 34.2169 92.8334 32.5 94.9832C30.3537 97.6704 26.0041 96.3174 25.7146 92.4622Z" fill="#3AB5EA"/>
</g>
</svg>
